<?xml version="1.0" encoding="utf-8"?>
<!-- Generator: Adobe Illustrator 16.0.0, SVG Export Plug-In . SVG Version: 6.00 Build 0)  -->
<!DOCTYPE svg PUBLIC "-//W3C//DTD SVG 1.1//EN" "http://www.w3.org/Graphics/SVG/1.1/DTD/svg11.dtd">
<svg version="1.1" id="Layer_1" xmlns="http://www.w3.org/2000/svg" xmlns:xlink="http://www.w3.org/1999/xlink" x="0px" y="0px"
	 width="50px" height="50px" viewBox="0 0 50 50" enable-background="new 0 0 50 50" xml:space="preserve">
<path d="M48.802,16.114h-5.198c-0.204,0-0.384,0.093-0.51,0.233L39.3,10.17c-0.021-0.032-0.044-0.063-0.074-0.09
	c-0.861-0.864-2.494-1.54-3.714-1.54h-0.868V6.548h-2.231V8.54H17.584V6.548h-2.232V8.54h-0.611c-1.221,0-2.855,0.672-3.722,1.529
	c-0.025,0.025-0.049,0.053-0.069,0.085l-4.005,6.253c-0.125-0.174-0.318-0.293-0.553-0.293H1.193c-0.384,0-0.693,0.311-0.693,0.693
	v2.771c0,0.384,0.309,0.694,0.693,0.694h3.026c-1.75,1.694-2.893,4.79-2.893,7.043v6.791c0,1.334,0.391,2.569,1.045,3.578v3.078
	c0,1.479,1.181,2.688,2.633,2.688h3.21c1.452,0,2.633-1.205,2.633-2.688v-0.508h28.304v0.508c0,1.479,1.182,2.688,2.632,2.688h3.213
	c1.452,0,2.632-1.205,2.632-2.688v-3.078c0.656-1.009,1.045-2.241,1.045-3.578v-6.79c0-2.254-1.143-5.349-2.895-7.043h3.026
	c0.384,0,0.694-0.311,0.694-0.693v-2.772C49.498,16.425,49.187,16.114,48.802,16.114z M12.78,11.762
	c0.607-0.436,1.527-0.755,2.004-0.755h20.774c0.507,0,1.377,0.34,1.833,0.696l4.491,7.339H8.124L12.78,11.762z M34.341,26.438v4.93
	h-1.426v-4.93H34.341z M31.875,26.438v4.93h-1.426v-4.93H31.875z M29.408,26.438v4.93h-1.425v-4.93H29.408z M26.944,26.438v4.93
	h-1.426v-4.93H26.944z M24.479,26.438v4.93h-1.426v-4.93H24.479z M22.013,26.438v4.93h-1.427v-4.93H22.013z M19.545,26.438v4.93
	h-1.425v-4.93H19.545z M17.08,26.438v4.93h-1.426v-4.93H17.08z M7.244,37.196c-4.192-1.432-2.158-4.228-2.158-4.228h4.992
	l3.328,4.228H7.244z M13.904,31.371H4.368v-4.933h9.535v4.933H13.904z M32.231,37.196H17.765c-1.497,0-2.712-1.343-2.712-3h19.89
	C34.943,35.854,33.729,37.196,32.231,37.196z M42.751,37.196h-6.164l3.328-4.228h4.993C44.908,32.969,46.942,35.765,42.751,37.196z
	 M45.627,31.371h-9.531v-4.933h9.531V31.371z"/>
</svg>
